<svg width="20" height="20" viewBox="0 0 20 20" fill="none" xmlns="http://www.w3.org/2000/svg">
<path d="M9.99984 18.3333C14.6022 18.3333 18.3332 14.6023 18.3332 9.99996C18.3332 5.39759 14.6022 1.66663 9.99984 1.66663C5.39746 1.66663 1.6665 5.39759 1.6665 9.99996C1.6665 14.6023 5.39746 18.3333 9.99984 18.3333Z" stroke="#4E4E4E" stroke-linecap="round" stroke-linejoin="round"/>
<path d="M18.125 10.7C15.2083 9.92496 12.6 10.0166 10.675 10.7C8.525 11.4666 6.5 13.0833 4.475 15.9666M7.13333 2.29163C10.775 7.31663 12.15 10.1416 13.825 17.0583L7.13333 2.29163ZM15.9417 4.24163C12.8417 7.86663 8.49167 8.95829 1.875 9.11663L15.9417 4.24163Z" stroke="#4E4E4E" stroke-linecap="round" stroke-linejoin="round"/>
</svg>
